<svg width="27" height="26" viewBox="0 0 27 26" fill="none" xmlns="http://www.w3.org/2000/svg">
<path d="M1 9.02083V22.1458C1 22.8254 1 23.1652 1.11083 23.4335C1.25916 23.7902 1.5429 24.0734 1.89979 24.221C2.16813 24.3333 2.50792 24.3333 3.1875 24.3333C3.86708 24.3333 4.20687 24.3333 4.47521 24.2225C4.83183 24.0742 5.11504 23.7904 5.26271 23.4335C5.375 23.1652 5.375 22.8254 5.375 22.1458V9.02083C5.375 8.34125 5.375 8.00146 5.26417 7.73312C5.11584 7.3765 4.8321 7.09329 4.47521 6.94562C4.20687 6.83333 3.86708 6.83333 3.1875 6.83333C2.50792 6.83333 2.16813 6.83333 1.89979 6.94417C1.54317 7.09249 1.25996 7.37623 1.11229 7.73312C1 8.00146 1 8.34125 1 9.02083ZM11.2083 3.1875V22.1458C11.2083 22.824 11.2083 23.1637 11.3192 23.4321C11.4672 23.7893 11.751 24.073 12.1081 24.221C12.3765 24.3333 12.7163 24.3333 13.3958 24.3333C14.0754 24.3333 14.4152 24.3333 14.6835 24.221C15.0399 24.0731 15.3231 23.7899 15.471 23.4335C15.5833 23.1637 15.5833 22.824 15.5833 22.1458V3.1875C15.5833 2.50792 15.5833 2.16813 15.4725 1.89979C15.3242 1.54317 15.0404 1.25996 14.6835 1.11229C14.4152 1 14.0754 1 13.3958 1C12.7163 1 12.3765 1 12.1081 1.11083C11.7515 1.25916 11.4683 1.5429 11.3206 1.89979C11.2083 2.16813 11.2083 2.50792 11.2083 3.1875ZM21.4167 13.3958V22.1458C21.4167 22.8254 21.4167 23.1652 21.5275 23.4335C21.6758 23.7902 21.9596 24.0734 22.3165 24.221C22.5848 24.3333 22.9246 24.3333 23.6042 24.3333C24.2838 24.3333 24.6235 24.3333 24.8919 24.2225C25.2485 24.0742 25.5317 23.7904 25.6794 23.4335C25.7917 23.1652 25.7917 22.8254 25.7917 22.1458V13.3958C25.7917 12.7162 25.7917 12.3765 25.6808 12.1081C25.5325 11.7515 25.2488 11.4683 24.8919 11.3206C24.6235 11.2083 24.2838 11.2083 23.6042 11.2083C22.9246 11.2083 22.5848 11.2083 22.3165 11.3192C21.9598 11.4675 21.6766 11.7512 21.529 12.1081C21.4167 12.3765 21.4167 12.7162 21.4167 13.3958Z" fill="#1E3A8A" stroke="#2A397D" stroke-width="2" stroke-linecap="square" stroke-linejoin="round"/>
</svg>
