<svg width="35" height="35" viewBox="0 0 35 35" fill="none" xmlns="http://www.w3.org/2000/svg">
<path d="M10.25 1.75C7.48858 1.75 5.25 3.98858 5.25 6.75V24.75C5.25 27.5114 7.48858 29.75 10.25 29.75H25.25C28.0114 29.75 30.25 27.5114 30.25 24.75V6.75C30.25 3.98858 28.0114 1.75 25.25 1.75H10.25ZM21.3214 21.1944C21.3214 21.624 20.9732 21.9722 20.5437 21.9722H11.3849C10.9554 21.9722 10.6071 21.624 10.6071 21.1944C10.6071 20.7649 10.9554 20.4167 11.3849 20.4167H20.5437C20.9732 20.4167 21.3214 20.7649 21.3214 21.1944ZM24.8929 16.5278C24.8929 16.9573 24.5446 17.3056 24.1151 17.3056H11.3849C10.9554 17.3056 10.6071 16.9573 10.6071 16.5278C10.6071 16.0982 10.9554 15.75 11.3849 15.75H24.1151C24.5446 15.75 24.8929 16.0982 24.8929 16.5278ZM24.8929 11.8611C24.8929 12.2907 24.5446 12.6389 24.1151 12.6389H11.3849C10.9554 12.6389 10.6071 12.2907 10.6071 11.8611C10.6071 11.4316 10.9554 11.0833 11.3849 11.0833H24.1151C24.5446 11.0833 24.8929 11.4316 24.8929 11.8611ZM24.8929 7.19444C24.8929 7.624 24.5446 7.97222 24.1151 7.97222H11.3849C10.9554 7.97222 10.6071 7.624 10.6071 7.19444C10.6071 6.76489 10.9554 6.41667 11.3849 6.41667H24.1151C24.5446 6.41667 24.8929 6.76489 24.8929 7.19444Z" fill="#1E3A8A"/>
</svg>
