<svg width="35" height="35" viewBox="0 0 35 35" fill="none" xmlns="http://www.w3.org/2000/svg">
<path d="M3.64587 8.75L11.6667 5.83334L19.6875 8.75L16.0417 10.9375V13.125C16.0417 13.125 15.069 12.3958 11.6667 12.3958C8.26442 12.3958 7.29171 13.125 7.29171 13.125V10.9375L3.64587 8.75ZM3.64587 8.75V14.5833V8.75Z" fill="#1E3A8A"/>
<path d="M3.64587 8.75L11.6667 5.83334L19.6875 8.75L16.0417 10.9375V13.125C16.0417 13.125 15.069 12.3958 11.6667 12.3958C8.26442 12.3958 7.29171 13.125 7.29171 13.125V10.9375L3.64587 8.75ZM3.64587 8.75V14.5833" stroke="#2A397D" stroke-width="1.5" stroke-linecap="round" stroke-linejoin="round"/>
<path d="M16.0417 12.3958V13.6923C16.0417 16.1977 14.0831 18.2292 11.6667 18.2292C9.25023 18.2292 7.29169 16.1977 7.29169 13.6923V12.3958M22.3388 16.0854C22.3388 16.0854 23.0461 15.5706 25.5209 15.5706C27.9956 15.5706 28.7029 16.084 28.7029 16.084M22.3388 16.0854V14.5833L19.6875 13.125L25.5209 10.9375L31.3542 13.125L28.7029 14.5833V16.084M22.3388 16.0854V16.5054C22.3388 17.3494 22.674 18.1587 23.2708 18.7555C23.8675 19.3522 24.6769 19.6875 25.5209 19.6875C26.3648 19.6875 27.1742 19.3522 27.7709 18.7555C28.3677 18.1587 28.7029 17.3494 28.7029 16.5054V16.084M6.39481 23.2254C5.0196 23.994 1.41314 25.5617 3.60939 27.5231C4.68273 28.4813 5.8771 29.1667 7.38064 29.1667H15.9527C17.4548 29.1667 18.6506 28.4813 19.724 27.5231C21.9202 25.5617 18.3138 23.994 16.9386 23.2254C13.7127 21.4244 9.62064 21.4244 6.39481 23.2254ZM23.3334 29.1667H28.7365C29.8638 29.1667 30.7592 28.6183 31.5642 27.8513C33.2121 26.2821 30.5069 25.0279 29.4759 24.414C28.5589 23.8727 27.5408 23.5253 26.4842 23.3931C25.4277 23.2609 24.3554 23.3468 23.3334 23.6454" fill="#1E3A8A"/>
<path d="M16.0417 12.3958V13.6923C16.0417 16.1977 14.0831 18.2292 11.6667 18.2292C9.25023 18.2292 7.29169 16.1977 7.29169 13.6923V12.3958M22.3388 16.0854C22.3388 16.0854 23.0461 15.5706 25.5209 15.5706C27.9956 15.5706 28.7029 16.084 28.7029 16.084M22.3388 16.0854V14.5833L19.6875 13.125L25.5209 10.9375L31.3542 13.125L28.7029 14.5833V16.084M22.3388 16.0854V16.5054C22.3388 17.3494 22.674 18.1587 23.2708 18.7555C23.8675 19.3522 24.6769 19.6875 25.5209 19.6875C26.3648 19.6875 27.1742 19.3522 27.7709 18.7555C28.3677 18.1587 28.7029 17.3494 28.7029 16.5054V16.084M23.3334 29.1667H28.7365C29.8638 29.1667 30.7592 28.6183 31.5642 27.8513C33.2121 26.2821 30.5069 25.0279 29.4759 24.414C28.5589 23.8727 27.5408 23.5253 26.4842 23.3931C25.4277 23.2609 24.3554 23.3468 23.3334 23.6454M6.39481 23.2254C5.0196 23.994 1.41314 25.5617 3.60939 27.5231C4.68273 28.4813 5.8771 29.1667 7.38064 29.1667H15.9527C17.4548 29.1667 18.6506 28.4813 19.724 27.5231C21.9202 25.5617 18.3138 23.994 16.9386 23.2254C13.7127 21.4244 9.62064 21.4244 6.39481 23.2254Z" stroke="#2A397D" stroke-width="1.5" stroke-linecap="round" stroke-linejoin="round"/>
</svg>
