<svg width="387" height="810" viewBox="0 0 387 810" fill="none" xmlns="http://www.w3.org/2000/svg">
<g clip-path="url(#clip0_132_84)">
<rect width="387" height="810" fill="white"/>
<rect width="387" height="810" fill="url(#paint0_linear_132_84)"/>
<ellipse opacity="0.54" cx="136" cy="129" rx="136" ry="129" transform="matrix(-1 0 0 1 495 -86)" fill="url(#paint1_linear_132_84)" fill-opacity="0.36"/>
<ellipse opacity="0.54" cx="0.5" cy="221" rx="76.5" ry="63" fill="url(#paint2_linear_132_84)"/>
<ellipse opacity="0.54" cx="136" cy="129" rx="136" ry="129" transform="matrix(-1 0 0 1 523 263)" fill="url(#paint3_linear_132_84)"/>
<ellipse opacity="0.54" cx="136" cy="129" rx="136" ry="129" transform="matrix(0.0346737 0.999399 0.999399 -0.0346737 -140.027 439.795)" fill="url(#paint4_linear_132_84)" fill-opacity="0.75"/>
</g>
<defs>
<linearGradient id="paint0_linear_132_84" x1="193.5" y1="0" x2="193.5" y2="810" gradientUnits="userSpaceOnUse">
<stop stop-color="#0F172A"/>
<stop offset="0.625" stop-color="#1E3A8A"/>
<stop offset="1" stop-color="#38BDF8"/>
</linearGradient>
<linearGradient id="paint1_linear_132_84" x1="79.4126" y1="54.9354" x2="226.75" y2="210.501" gradientUnits="userSpaceOnUse">
<stop stop-color="#0F172A"/>
<stop offset="0.4" stop-color="#1E3A8A"/>
<stop offset="0.7" stop-color="#1E3A8A"/>
<stop offset="1" stop-color="#9333EA"/>
</linearGradient>
<linearGradient id="paint2_linear_132_84" x1="-31.3304" y1="184.829" x2="39.3737" y2="270.813" gradientUnits="userSpaceOnUse">
<stop stop-color="#0F172A"/>
<stop offset="0.4" stop-color="#1E3A8A"/>
<stop offset="0.7" stop-color="#1E3A8A"/>
<stop offset="1" stop-color="#9333EA"/>
</linearGradient>
<linearGradient id="paint3_linear_132_84" x1="79.4126" y1="54.9354" x2="226.75" y2="210.501" gradientUnits="userSpaceOnUse">
<stop stop-color="#0F172A"/>
<stop offset="0.4" stop-color="#1E3A8A"/>
<stop offset="0.7" stop-color="#1E3A8A"/>
<stop offset="1" stop-color="#9333EA"/>
</linearGradient>
<linearGradient id="paint4_linear_132_84" x1="79.4126" y1="54.9354" x2="226.75" y2="210.501" gradientUnits="userSpaceOnUse">
<stop stop-color="#0F172A"/>
<stop offset="0.4" stop-color="#1E3A8A"/>
<stop offset="0.7" stop-color="#1E3A8A"/>
<stop offset="1" stop-color="#9333EA"/>
</linearGradient>
<clipPath id="clip0_132_84">
<rect width="387" height="810" fill="white"/>
</clipPath>
</defs>
</svg>
